8888888888                888      8888888888                       
888                       888      888                              
888                       888      888                              
8888888  .d88b.   .d88b.  888      8888888 888d888 .d88b.   .d88b.  
888     d8P  Y8b d8P  Y8b 888      888     888P"  d8P  Y8b d8P  Y8b 
888     88888888 88888888 888      888     888    88888888 88888888 
888     Y8b.     Y8b.     888      888     888    Y8b.     Y8b.     
888      "Y8888   "Y8888  888      888     888     "Y8888   "Y8888  


Genre:Animation | Family | Fantasy
Language:English
IMDb: 
http://www.imdb.com/title/tt1482459
Source:BluRay.x264-SiNNERS Thanks!
Encoder:Tony

Format : MPEG-4
Format profile : Base Media
Codec ID : isom
File size : 2.08 GiB
Duration : 1h 26mn
Overall bit rate mode : Variable
Overall bit rate : 3 452 Kbps

Video
ID : 1
Format : AVC
Format/Info : Advanced Video Codec
Format profile : High@L4.1
Format settings, CABAC : Yes
Format settings, ReFrames : 3 frames
Codec ID : avc1
Codec ID/Info : Advanced Video Coding
Duration : 1h 26mn
Bit rate : 3 000 Kbps
Maximum bit rate : 11.6 Mbps
Width : 1 280 pixels
Height : 696 pixels
Display aspect ratio : 16:9
Frame rate mode : Constant
Frame rate : 23.976 fps
Color space : YUV
Chroma subsampling : 4:2:0
Bit depth : 8 bits
Scan type : Progressive
Bits/(Pixel*Frame) : 0.140
Stream size : 1.82 GiB (87%)
Writing library : x264

Audio
ID : 2
Format : AAC
Format/Info : Advanced Audio Codec
Format profile : LC
Codec ID : 40
Duration : 1h 26mn
Bit rate mode : Variable
Bit rate : 438 Kbps
Maximum bit rate : 536 Kbps
Channel(s) : 6 channels
Channel positions : Front: L C R, Side: L R, LFE
Sampling rate : 48.0 KHz
Compression mode : Lossy
Stream size : 270 MiB (13%)

Plot:
A 12-year-old boy searches for the one thing that will enable him to win the affection of the girl of his dreams. To find it he must discover the story of the Lorax, the grumpy yet charming creature who fights to protect his world.

Screen Shots:
                                   
http://img207.imageshack.us/img207/390/vlcsnap2012072617h45m14.png
 
http://img818.imageshack.us/img818/4900/vlcsnap2012072617h41m32.png
 
http://img4.imageshack.us/img4/1159/vlcsnap2012072617h47m41.png
 
http://img207.imageshack.us/img207/284/vlcsnap2012072617h43m23.png


8888888888                888      8888888888                       
888                       888      888                              
888                       888      888                              
8888888  .d88b.   .d88b.  888      8888888 888d888 .d88b.   .d88b.  
888     d8P  Y8b d8P  Y8b 888      888     888P"  d8P  Y8b d8P  Y8b 
888     88888888 88888888 888      888     888    88888888 88888888 
888     Y8b.     Y8b.     888      888     888    Y8b.     Y8b.     
888      "Y8888   "Y8888  888      888     888     "Y8888   "Y8888  